<svg xmlns="http://www.w3.org/2000/svg" version="1.1" xmlns:xlink="http://www.w3.org/1999/xlink" xmlns:svgjs="http://svgjs.dev/svgjs" width="1000" height="623" viewBox="0 0 1000 623"><g transform="matrix(1,0,0,1,-0.6060606060606233,0.2522267206477409)"><svg xmlns="http://www.w3.org/2000/svg" version="1.1" xmlns:xlink="http://www.w3.org/1999/xlink" xmlns:svgjs="http://svgjs.com/svgjs" viewBox="0 0 396 247" data-background-color="#ffffff" preserveAspectRatio="xMidYMid meet" height="623" width="1000"><defs></defs><g id="tight-bounds" transform="matrix(1,0,0,1,0.2400000000000091,-0.09999999999999432)"><svg viewBox="0 0 395.52 247.2" height="247.2" width="395.52"><g><svg xmlns="http://www.w3.org/2000/svg" version="1.1" xmlns:xlink="http://www.w3.org/1999/xlink" xmlns:svgjs="http://svgjs.com/svgjs"></svg></g><g><svg viewBox="0 0 395.52 247.2" height="247.2" width="395.52"><g><path d="M363.267 247.2h-78.863l-5.208-11.829h84.071zM111.116 247.2h-78.863v-11.829h84.071zM175.48 0h44.56l5.211 11.829-54.982 0z" fill="#7b7985" data-fill-palette-color="tertiary"></path></g><g transform="matrix(1,0,0,1,4.902569832402264,37.08)"><svg viewBox="0 0 385.71486033519545 173.04" height="173.04" width="385.71486033519545"><g><svg viewBox="0 0 385.71486033519545 173.04" height="173.04" width="385.71486033519545"><g><svg viewBox="0 0 385.71486033519545 173.04" height="173.04" width="385.71486033519545"><g><svg viewBox="0 0 385.71486033519545 173.04" height="173.04" width="385.71486033519545"><g><svg viewBox="0 0 385.71486033519545 173.04" height="173.04" width="385.71486033519545"><g><svg viewBox="0 0 385.71486033519545 173.04" height="173.04" width="385.71486033519545"><g transform="matrix(1,0,0,1,0,0)"><svg width="385.71486033519545" viewBox="-4.85 -35.8 79.8 35.8" height="173.04" data-palette-color="#cc0000"><path d="M36.15-2.15L41.95-2.15 41.95 0 30.8 0 27.3-7.95 9.8-7.95 6.3 0-4.85 0-4.85-2.15 0.95-2.15 15.4-34.95 21.7-34.95 36.15-2.15ZM12.2-13.4L24.9-13.4 18.55-27.8 12.2-13.4ZM67.55-2.15L74.95-2.15 74.95 0 37.1 0 37.1-2.15 49.2-2.15Q44.85-4.35 42.27-8.6 39.7-12.85 39.7-18.2L39.7-18.2Q39.7-25.85 45-30.83 50.3-35.8 57.87-35.8 65.45-35.8 70.45-31.4L70.45-31.4 67.3-26.9Q65.25-28.65 63.17-29.33 61.1-30 58.35-30L58.35-30Q53-30 49.42-26.8 45.85-23.6 45.85-18.05 45.85-12.5 49.35-9.13 52.85-5.75 57.82-5.75 62.8-5.75 66.15-7.9L66.15-7.9 66.15-17.5 72.05-17.5 72.05-5.55Q70.2-3.5 67.55-2.15L67.55-2.15Z" opacity="1" transform="matrix(1,0,0,1,0,0)" fill="#cc0000" class="undefined-text-0" data-fill-palette-color="primary" id="text-0"></path></svg></g></svg></g></svg></g></svg></g></svg></g></svg></g></svg></g></svg></g></svg><rect width="395.52" height="247.2" fill="none" stroke="none" visibility="hidden"></rect></g></svg></g></svg>